<mxfile host="app.diagrams.net" modified="2023-10-21T08:02:31.832Z" agent="Mozilla/5.0 (Windows NT 10.0; Win64; x64) AppleWebKit/537.36 (KHTML, like Gecko) Chrome/118.0.0.0 Safari/537.36" etag="kzqcvicHrG8k6QOltASD" version="22.0.6" type="device">
  <diagram name="Page-1" id="TUuK_z1TODneTFZ7jnLf">
    <mxGraphModel dx="1219" dy="612" grid="1" gridSize="10" guides="1" tooltips="1" connect="1" arrows="1" fold="1" page="1" pageScale="1" pageWidth="850" pageHeight="1100" math="0" shadow="0">
      <root>
        <mxCell id="0" />
        <mxCell id="1" parent="0" />
        <mxCell id="OzavWiV9OdfGLWeC7wIS-1" value="" style="swimlane;html=1;childLayout=stackLayout;startSize=0;rounded=0;shadow=0;comic=0;labelBackgroundColor=none;strokeWidth=1;fontFamily=Verdana;fontSize=12;align=center;" parent="1" vertex="1">
          <mxGeometry x="40" y="21" width="500" height="380" as="geometry">
            <mxRectangle x="40" y="20" width="70" height="30" as="alternateBounds" />
          </mxGeometry>
        </mxCell>
        <mxCell id="OzavWiV9OdfGLWeC7wIS-2" value="&lt;font style=&quot;font-size: 14px;&quot;&gt;User&lt;/font&gt;" style="swimlane;html=1;startSize=20;" parent="OzavWiV9OdfGLWeC7wIS-1" vertex="1">
          <mxGeometry width="250" height="380" as="geometry">
            <mxRectangle y="20" width="40" height="970" as="alternateBounds" />
          </mxGeometry>
        </mxCell>
        <mxCell id="OzavWiV9OdfGLWeC7wIS-3" value="" style="ellipse;whiteSpace=wrap;html=1;rounded=0;shadow=0;comic=0;labelBackgroundColor=none;strokeWidth=1;fillColor=#000000;fontFamily=Verdana;fontSize=12;align=center;" parent="OzavWiV9OdfGLWeC7wIS-2" vertex="1">
          <mxGeometry x="105" y="40" width="40" height="40" as="geometry" />
        </mxCell>
        <mxCell id="OzavWiV9OdfGLWeC7wIS-5" value="&lt;font style=&quot;font-size: 14px;&quot;&gt;Promotions &amp;amp; offers&lt;/font&gt;" style="rounded=1;whiteSpace=wrap;html=1;" parent="OzavWiV9OdfGLWeC7wIS-2" vertex="1">
          <mxGeometry x="75" y="128" width="100" height="40" as="geometry" />
        </mxCell>
        <mxCell id="OzavWiV9OdfGLWeC7wIS-6" value="" style="endArrow=classic;html=1;rounded=0;exitX=0.5;exitY=1;exitDx=0;exitDy=0;entryX=0.5;entryY=0;entryDx=0;entryDy=0;" parent="OzavWiV9OdfGLWeC7wIS-2" source="OzavWiV9OdfGLWeC7wIS-3" target="OzavWiV9OdfGLWeC7wIS-5" edge="1">
          <mxGeometry width="50" height="50" relative="1" as="geometry">
            <mxPoint x="360" y="300" as="sourcePoint" />
            <mxPoint x="410" y="250" as="targetPoint" />
          </mxGeometry>
        </mxCell>
        <mxCell id="OzavWiV9OdfGLWeC7wIS-4" value="" style="ellipse;html=1;shape=endState;fillColor=#000000;strokeColor=#0F0000;" parent="OzavWiV9OdfGLWeC7wIS-2" vertex="1">
          <mxGeometry x="110" y="315" width="40" height="40" as="geometry" />
        </mxCell>
        <mxCell id="8qBxuZVfWUz4ZcnqxZRa-7" value="" style="endArrow=classic;html=1;rounded=0;exitX=0.5;exitY=1;exitDx=0;exitDy=0;entryX=0.5;entryY=0;entryDx=0;entryDy=0;" parent="OzavWiV9OdfGLWeC7wIS-2" source="gI9Cqu3KJDy3513o_Tue-8" target="OzavWiV9OdfGLWeC7wIS-4" edge="1">
          <mxGeometry width="50" height="50" relative="1" as="geometry">
            <mxPoint x="124.99999999999977" y="396" as="sourcePoint" />
            <mxPoint x="650" y="694" as="targetPoint" />
          </mxGeometry>
        </mxCell>
        <mxCell id="gI9Cqu3KJDy3513o_Tue-8" value="&lt;font style=&quot;font-size: 14px;&quot;&gt;Display promotions &amp;amp; offers&lt;/font&gt;" style="rounded=1;whiteSpace=wrap;html=1;" vertex="1" parent="OzavWiV9OdfGLWeC7wIS-2">
          <mxGeometry x="80" y="214" width="100" height="51" as="geometry" />
        </mxCell>
        <mxCell id="OzavWiV9OdfGLWeC7wIS-10" value="&lt;font style=&quot;font-size: 14px;&quot;&gt;System&lt;/font&gt;" style="swimlane;html=1;startSize=20;" parent="OzavWiV9OdfGLWeC7wIS-1" vertex="1">
          <mxGeometry x="250" width="250" height="380" as="geometry" />
        </mxCell>
        <mxCell id="OzavWiV9OdfGLWeC7wIS-12" value="&lt;font style=&quot;font-size: 14px;&quot;&gt;if found&lt;/font&gt;" style="rhombus;whiteSpace=wrap;html=1;" parent="OzavWiV9OdfGLWeC7wIS-10" vertex="1">
          <mxGeometry x="73" y="203" width="103" height="71" as="geometry" />
        </mxCell>
        <mxCell id="dHQx1IV8ueyIYqK32sHI-1" value="&lt;span style=&quot;font-size: 14px;&quot;&gt;find promotions &amp;amp; offer&lt;/span&gt;" style="rounded=1;whiteSpace=wrap;html=1;" parent="OzavWiV9OdfGLWeC7wIS-10" vertex="1">
          <mxGeometry x="80" y="123" width="90" height="52" as="geometry" />
        </mxCell>
        <mxCell id="dHQx1IV8ueyIYqK32sHI-2" value="" style="endArrow=classic;html=1;rounded=0;exitX=0.5;exitY=1;exitDx=0;exitDy=0;entryX=0.5;entryY=0;entryDx=0;entryDy=0;" parent="OzavWiV9OdfGLWeC7wIS-10" source="dHQx1IV8ueyIYqK32sHI-1" target="OzavWiV9OdfGLWeC7wIS-12" edge="1">
          <mxGeometry x="-0.5" y="10" width="50" height="50" relative="1" as="geometry">
            <mxPoint x="-70" y="230" as="sourcePoint" />
            <mxPoint x="90" y="230" as="targetPoint" />
            <mxPoint as="offset" />
          </mxGeometry>
        </mxCell>
        <mxCell id="gI9Cqu3KJDy3513o_Tue-2" value="" style="endArrow=classic;html=1;rounded=0;exitX=1;exitY=0.5;exitDx=0;exitDy=0;entryX=0;entryY=0.5;entryDx=0;entryDy=0;" edge="1" parent="OzavWiV9OdfGLWeC7wIS-1" target="dHQx1IV8ueyIYqK32sHI-1" source="OzavWiV9OdfGLWeC7wIS-5">
          <mxGeometry width="50" height="50" relative="1" as="geometry">
            <mxPoint x="135" y="90" as="sourcePoint" />
            <mxPoint x="374.9999999999998" y="98.99999999999989" as="targetPoint" />
          </mxGeometry>
        </mxCell>
        <mxCell id="gI9Cqu3KJDy3513o_Tue-5" value="yes" style="endArrow=classic;html=1;rounded=0;exitX=0;exitY=0.5;exitDx=0;exitDy=0;entryX=1;entryY=0.5;entryDx=0;entryDy=0;" edge="1" parent="OzavWiV9OdfGLWeC7wIS-1" source="OzavWiV9OdfGLWeC7wIS-12" target="gI9Cqu3KJDy3513o_Tue-8">
          <mxGeometry x="-0.8177" y="10" width="50" height="50" relative="1" as="geometry">
            <mxPoint x="185" y="158" as="sourcePoint" />
            <mxPoint x="340" y="158" as="targetPoint" />
            <mxPoint as="offset" />
          </mxGeometry>
        </mxCell>
        <mxCell id="gI9Cqu3KJDy3513o_Tue-3" value="no" style="endArrow=classic;html=1;rounded=0;exitX=1;exitY=0.5;exitDx=0;exitDy=0;" edge="1" parent="1" source="OzavWiV9OdfGLWeC7wIS-12">
          <mxGeometry x="-0.9842" y="10" width="50" height="50" relative="1" as="geometry">
            <mxPoint x="225" y="168" as="sourcePoint" />
            <mxPoint x="170" y="130" as="targetPoint" />
            <Array as="points">
              <mxPoint x="480" y="260" />
              <mxPoint x="480" y="130" />
            </Array>
            <mxPoint as="offset" />
          </mxGeometry>
        </mxCell>
      </root>
    </mxGraphModel>
  </diagram>
</mxfile>
